<?xml version="1.0" encoding="UTF-8" standalone="no"?>
<!-- Created with Inkscape (http://www.inkscape.org/) -->

<svg
   width="17.305435mm"
   height="17.30542mm"
   viewBox="0 0 17.305435 17.30542"
   version="1.1"
   id="svg22346"
   xmlns:inkscape="http://www.inkscape.org/namespaces/inkscape"
   xmlns:sodipodi="http://sodipodi.sourceforge.net/DTD/sodipodi-0.dtd"
   xmlns="http://www.w3.org/2000/svg"
   xmlns:svg="http://www.w3.org/2000/svg">
  <sodipodi:namedview
     id="namedview22348"
     pagecolor="#ffffff"
     bordercolor="#000000"
     borderopacity="0.25"
     inkscape:showpageshadow="2"
     inkscape:pageopacity="0.0"
     inkscape:pagecheckerboard="0"
     inkscape:deskcolor="#d1d1d1"
     inkscape:document-units="mm"
     showgrid="false" />
  <defs
     id="defs22343" />
  <g
     inkscape:label="Layer 1"
     inkscape:groupmode="layer"
     id="layer1"
     transform="translate(-127.60567,-214.38358)">
    <path
       d="m 130.66423,219.26459 1.85415,-1.8383 -2.15525,-0.31695 z m 2.99517,-0.68144 7.5117,7.5117 -1.83831,1.82246 -7.5117,-7.49585 -2.31372,2.31373 -1.10933,-7.57509 7.57509,1.10932 z m -6.05373,4.45314 h 2.23449 q 0,1.31534 0.50712,2.5039 0.50712,1.17271 1.36288,2.04432 0.87161,0.85576 2.04432,1.36288 1.18856,0.50712 2.5039,0.50712 1.31534,0 2.48806,-0.50712 1.18855,-0.50712 2.04432,-1.36288 0.87161,-0.87161 1.37873,-2.04432 0.50712,-1.18856 0.50712,-2.5039 0,-1.31534 -0.50712,-2.48805 -0.50712,-1.18856 -1.37873,-2.04432 -0.85577,-0.87161 -2.04432,-1.37873 -1.17272,-0.50712 -2.48806,-0.50712 v -2.23449 q 1.75907,0 3.35967,0.68144 1.60059,0.68144 2.75745,1.85415 1.17272,1.15687 1.85416,2.75746 0.68144,1.60059 0.68144,3.35966 0,1.75907 -0.68144,3.35966 -0.68144,1.6006 -1.85416,2.77331 -1.15686,1.15686 -2.75745,1.8383 -1.6006,0.68144 -3.35967,0.68144 -1.75906,0 -3.35966,-0.68144 -1.60059,-0.68144 -2.7733,-1.8383 -1.15687,-1.17271 -1.83831,-2.77331 -0.68144,-1.60059 -0.68144,-3.35966 z"
       style="font-weight:bold;font-size:32.4556px;font-family:'Noto Sans';-inkscape-font-specification:'Noto Sans Bold';text-align:center;text-anchor:middle;fill:#000000;stroke:none;stroke-width:0.264583"
       id="path48542" />
  </g>
</svg>
