<?xml version="1.0" encoding="UTF-8" standalone="no"?>
<!-- Created with Inkscape (http://www.inkscape.org/) -->

<svg
   width="19.273247mm"
   height="19.273254mm"
   viewBox="0 0 19.273247 19.273254"
   version="1.1"
   id="svg22346"
   xmlns:inkscape="http://www.inkscape.org/namespaces/inkscape"
   xmlns:sodipodi="http://sodipodi.sourceforge.net/DTD/sodipodi-0.dtd"
   xmlns="http://www.w3.org/2000/svg"
   xmlns:svg="http://www.w3.org/2000/svg">
  <sodipodi:namedview
     id="namedview22348"
     pagecolor="#ffffff"
     bordercolor="#000000"
     borderopacity="0.25"
     inkscape:showpageshadow="2"
     inkscape:pageopacity="0.0"
     inkscape:pagecheckerboard="0"
     inkscape:deskcolor="#d1d1d1"
     inkscape:document-units="mm"
     showgrid="false" />
  <defs
     id="defs22343" />
  <g
     inkscape:label="Layer 1"
     inkscape:groupmode="layer"
     id="layer1"
     transform="translate(-96.234629,-213.90542)">
    <path
       d="m 102.65904,222.46304 h -2.1456 q -1.773537,0 -3.026174,-1.25264 -1.252637,-1.25263 -1.252637,-3.02617 0,-1.77353 1.252637,-3.02617 1.252637,-1.25264 3.026174,-1.25264 1.77353,0 3.02617,1.25264 1.26504,1.25264 1.26504,3.02617 v 2.14561 h 2.1456 v -2.14561 q 0,-1.77353 1.25264,-3.02617 1.25264,-1.25264 3.02617,-1.25264 1.77354,0 3.02617,1.25264 1.25264,1.25264 1.25264,3.02617 0,1.77354 -1.25264,3.02617 -1.25263,1.25264 -3.02617,1.25264 h -2.1456 v 2.14561 h 2.1456 q 1.77354,0 3.02617,1.26504 1.25264,1.25263 1.25264,3.02617 0,1.77353 -1.25264,3.02617 -1.25263,1.25264 -3.02617,1.25264 -1.77353,0 -3.02617,-1.25264 -1.25264,-1.25264 -1.25264,-3.02617 v -2.14561 h -2.1456 v 2.14561 q 0,1.77353 -1.26504,3.02617 -1.25264,1.25264 -3.02617,1.25264 -1.773537,0 -3.026174,-1.25264 -1.252637,-1.25264 -1.252637,-3.02617 0,-1.77354 1.252637,-3.02617 1.252637,-1.26504 3.026174,-1.26504 h 2.1456 z m 2.14561,2.14561 h 2.1456 v -2.14561 h -2.1456 z m -2.14561,-4.27881 v -2.14561 q 0,-0.88056 -0.63252,-1.51308 -0.62011,-0.63252 -1.51308,-0.63252 -0.880569,0 -1.513088,0.63252 -0.620117,0.63252 -0.620117,1.51308 0,0.89297 0.620117,1.52549 0.632519,0.62012 1.513088,0.62012 z m 6.42442,0 h 2.1456 q 0.89297,0 1.51309,-0.63252 0.63252,-0.63252 0.63252,-1.51309 0,-0.88056 -0.63252,-1.51308 -0.63252,-0.63252 -1.51309,-0.63252 -0.89297,0 -1.52549,0.63252 -0.62011,0.63252 -0.62011,1.51308 z m 0,6.42441 v 2.14561 q 0,0.88056 0.63252,1.51308 0.63252,0.62012 1.51308,0.62012 0.89297,0 1.51309,-0.62012 0.63252,-0.63252 0.63252,-1.52548 0,-0.88057 -0.63252,-1.50069 -0.63252,-0.63252 -1.51309,-0.63252 z m -6.42442,0 h -2.1456 q -0.880569,0 -1.513088,0.63252 -0.620117,0.62012 -0.620117,1.51309 0,0.88056 0.620117,1.51308 0.632519,0.62012 1.513088,0.62012 0.89297,0 1.51308,-0.62012 0.63252,-0.63252 0.63252,-1.51308 z"
       style="font-weight:bold;font-size:25.4px;font-family:'Noto Sans';-inkscape-font-specification:'Noto Sans Bold';text-align:center;text-anchor:middle;fill:#000000;stroke:none;stroke-width:0.264583"
       id="path48540" />
  </g>
</svg>
