<?xml version="1.0" encoding="UTF-8" standalone="no"?>
<!-- Created with Inkscape (http://www.inkscape.org/) -->

<svg
   width="19.149216mm"
   height="19.273247mm"
   viewBox="0 0 19.149216 19.273247"
   version="1.1"
   id="svg22346"
   xmlns:inkscape="http://www.inkscape.org/namespaces/inkscape"
   xmlns:sodipodi="http://sodipodi.sourceforge.net/DTD/sodipodi-0.dtd"
   xmlns="http://www.w3.org/2000/svg"
   xmlns:svg="http://www.w3.org/2000/svg">
  <sodipodi:namedview
     id="namedview22348"
     pagecolor="#ffffff"
     bordercolor="#000000"
     borderopacity="0.25"
     inkscape:showpageshadow="2"
     inkscape:pageopacity="0.0"
     inkscape:pagecheckerboard="0"
     inkscape:deskcolor="#d1d1d1"
     inkscape:document-units="mm"
     showgrid="false" />
  <defs
     id="defs22343" />
  <g
     inkscape:label="Layer 1"
     inkscape:groupmode="layer"
     id="layer1"
     transform="translate(-87.058672,-93.278249)">
    <path
       d="m 87.058672,102.91487 q 1.922363,0 3.671094,-0.73174 1.661914,-0.69453 3.088183,-2.1084 1.389063,-1.376657 2.108399,-3.100582 0.706933,-1.699121 0.706933,-3.695899 0,1.947168 0.706934,3.695899 0.657324,1.624707 2.108398,3.100582 1.339457,1.36426 3.088187,2.1084 1.73632,0.73174 3.67109,0.73174 -1.93477,0 -3.67109,0.73174 -1.74873,0.74414 -3.088187,2.1084 -1.451074,1.47588 -2.108398,3.10058 -0.706934,1.74873 -0.706934,3.6959 0,-1.99678 -0.706933,-3.6959 -0.719336,-1.72392 -2.108399,-3.10058 -1.426269,-1.41387 -3.088183,-2.1084 -1.748731,-0.73174 -3.671094,-0.73174 z"
       style="font-weight:bold;font-size:25.4px;font-family:'Noto Sans';-inkscape-font-specification:'Noto Sans Bold';text-align:center;text-anchor:middle;fill:#000000;stroke:none;stroke-width:0.264583"
       id="path48510" />
  </g>
</svg>
