<?xml version="1.0" encoding="UTF-8" standalone="no"?>
<!-- Created with Inkscape (http://www.inkscape.org/) -->

<svg
   width="21.067436mm"
   height="21.067429mm"
   viewBox="0 0 21.067436 21.067429"
   version="1.1"
   id="svg22346"
   xmlns:inkscape="http://www.inkscape.org/namespaces/inkscape"
   xmlns:sodipodi="http://sodipodi.sourceforge.net/DTD/sodipodi-0.dtd"
   xmlns="http://www.w3.org/2000/svg"
   xmlns:svg="http://www.w3.org/2000/svg">
  <sodipodi:namedview
     id="namedview22348"
     pagecolor="#ffffff"
     bordercolor="#000000"
     borderopacity="0.25"
     inkscape:showpageshadow="2"
     inkscape:pageopacity="0.0"
     inkscape:pagecheckerboard="0"
     inkscape:deskcolor="#d1d1d1"
     inkscape:document-units="mm"
     showgrid="false" />
  <defs
     id="defs22343" />
  <g
     inkscape:label="Layer 1"
     inkscape:groupmode="layer"
     id="layer1"
     transform="translate(-127.31646,-133.54591)">
    <path
       d="m 137.85018,149.57799 4.36011,-8.16074 h -8.72022 z m -9.70414,-1.40835 q -0.82958,-1.94855 -0.82958,-4.09002 0,-2.14147 0.82958,-4.09002 0.82958,-1.94854 2.23793,-3.3569 1.42765,-1.42764 3.37619,-2.25722 1.94855,-0.82958 4.09002,-0.82958 2.14147,0 4.09002,0.82958 1.94854,0.82958 3.3569,2.25722 1.42764,1.40836 2.25722,3.3569 0.82958,1.94855 0.82958,4.09002 0,2.14147 -0.82958,4.09002 -0.82958,1.94854 -2.25722,3.37619 -1.40836,1.40835 -3.3569,2.23793 -1.94855,0.82958 -4.09002,0.82958 -2.14147,0 -4.09002,-0.82958 -1.94854,-0.82958 -3.37619,-2.23793 -1.40835,-1.42765 -2.23793,-3.37619 z m 1.89067,-4.09002 q 0,1.60128 0.61736,3.04822 0.61736,1.42765 1.65915,2.48874 1.06109,1.04179 2.50803,1.65915 0.71383,0.30868 1.48553,0.46303 l -5.71059,-10.5916 q -0.55948,1.38906 -0.55948,2.93246 z m 1.94854,-5.1704 h 11.72986 q -0.15434,-0.17363 -0.32797,-0.36656 -1.06109,-1.04179 -2.50803,-1.65915 -1.42765,-0.61736 -3.02893,-0.61736 -1.60128,0 -3.04822,0.61736 -1.42765,0.61736 -2.48874,1.65915 -0.17363,0.19293 -0.32797,0.36656 z m 13.11892,2.23794 -5.71059,10.5916 q 0.7717,-0.15435 1.48553,-0.46303 1.44694,-0.61736 2.48873,-1.65915 1.06109,-1.06109 1.67845,-2.48874 0.61736,-1.44694 0.61736,-3.04822 0,-1.5434 -0.55948,-2.93246 z"
       style="font-weight:bold;font-size:39.5111px;font-family:'Noto Sans';-inkscape-font-specification:'Noto Sans Bold';text-align:center;text-anchor:middle;fill:#000000;stroke:none;stroke-width:0.264583"
       id="path48524" />
  </g>
</svg>
